<?xml version="1.0" encoding="UTF-8"?>
<svg width="700pt" height="700pt" version="1.1" viewBox="0 0 700 700" xmlns="http://www.w3.org/2000/svg">
 <g>
  <path d="m302.58 95.367c-21.875-0.83203-43.156 7.2266-58.996 22.34-15.836 15.113-24.883 35.996-25.074 57.887v15.969-0.003906c-4.2539 3.9766-6.6719 9.5391-6.6719 15.359 0 5.8242 2.418 11.387 6.6719 15.359v50.984c-0.003907 7.3945-3.4336 14.371-9.2891 18.887-5.25 4.0664-8.3203 10.336-8.3164 16.973v19.699l-10.277 4.1875c-11.156 4.5352-19.742 13.762-23.461 25.219h-14.199c-4.7812-0.007812-9.3438 1.9844-12.59 5.4961-3.2422 3.5117-4.8711 8.2188-4.4844 12.984l11.766 145.8c0.3125 3.8594 2.0625 7.457 4.9102 10.082 2.8438 2.625 6.5742 4.0859 10.445 4.0859h272.95c3.8711 0.003906 7.6055-1.4531 10.453-4.0781 2.8477-2.625 4.6055-6.2266 4.9141-10.09l11.73-145.8h0.003906c0.38281-4.7578-1.2383-9.4609-4.4727-12.973-3.2383-3.5117-7.793-5.5078-12.57-5.5078h-14.215c-3.7148-11.453-12.293-20.68-23.445-25.219l-10.27-4.1875v-19.699c0.003906-6.6406-3.0703-12.906-8.3242-16.973-5.8516-4.5195-9.2773-11.492-9.2773-18.887v-50.984c4.2539-3.9727 6.668-9.5352 6.668-15.359 0-5.8203-2.4141-11.383-6.668-15.359v-15.969 0.003906c-0.18359-20.824-8.3789-40.777-22.887-55.715-14.508-14.941-34.211-23.719-55.02-24.512zm-5.875 7.6602c19.793-0.75781 39.047 6.5312 53.383 20.199 14.332 13.672 22.523 32.562 22.703 52.367v11.391c-2.1445-0.71875-4.3906-1.0859-6.6562-1.0859h-3.2578v-0.40625l0.003906-0.003907c-0.003906-3.0117-1.7969-5.7344-4.5625-6.9258-12.965-5.6133-23.32-15.938-28.969-28.887-1-2.2891-3.0664-3.9375-5.5195-4.4023-2.4531-0.46484-4.9805 0.31641-6.7461 2.082-19.609 19.578-45.953 30.938-73.648 31.758-3.7812 0.12109-6.8906 3.0195-7.2695 6.7812h-3.3164c-2.2578 0.003907-4.5 0.37109-6.6367 1.0898v-11.395c0.17188-18.836 7.5898-36.883 20.715-50.395 13.129-13.512 30.953-21.453 49.777-22.172zm25.672 49.945c6.4414 14.609 18.148 26.254 32.793 32.617v35.457-0.003906c0.003906 8.9883-2.3398 17.82-6.7969 25.625-9.8164 17.164-26.465 29.352-45.793 33.523-2.0391 0.4375-4.1445 0.4375-6.1836 0-19.32-4.1758-35.965-16.363-45.777-33.523-4.457-7.8047-6.7969-16.637-6.793-25.625v-34.238c29.523-0.91016 57.605-13.004 78.551-33.832zm-89.527 40.633h3.2656v26.629h-3.2656c-7.3516 0-13.312-5.9609-13.312-13.316 0-7.3516 5.9609-13.312 13.312-13.312zm130.03 0h3.2578-0.003906c7.3555 0 13.316 5.9609 13.316 13.312 0 7.3555-5.9609 13.316-13.316 13.316h-3.2578zm-136.67 33.25v-0.003907c2.1367 0.71875 4.3789 1.0859 6.6367 1.0898h3.6719c0.92578 7.9414 3.4453 15.613 7.4102 22.555 5.0586 8.8438 11.816 16.602 19.883 22.832v20.039c0.003906 2.9102-0.86328 5.7539-2.4844 8.1719-1.6211 2.418-3.9258 4.293-6.6211 5.3945l-46.102 18.758v-16.57c0.003906-4.2539 1.9727-8.2695 5.3398-10.871 7.7383-5.9805 12.266-15.211 12.266-24.988zm146.58 0v46.41-0.003906c0 9.7812 4.5312 19.008 12.27 24.988 3.3672 2.6055 5.3359 6.6172 5.3359 10.871v16.566l-46.102-18.758v0.003906c-2.6992-1.0977-5.0117-2.9727-6.6367-5.3906-1.625-2.4141-2.4961-5.2617-2.4961-8.1758v-20.039c8.0703-6.2266 14.828-13.988 19.891-22.832 3.9688-6.9414 6.4922-14.613 7.418-22.555h3.6641c2.2656-0.003906 4.5117-0.37109 6.6562-1.0898zm-101.27 51.715v-0.003906c7.207 4.293 15.062 7.3828 23.262 9.1523 3.1055 0.67188 6.3203 0.67188 9.4297 0 8.1953-1.7695 16.051-4.8594 23.254-9.1523v14.801c0 3.457 0.80859 6.8672 2.3516 9.9648-7.5938 8.8398-18.668 13.926-30.32 13.926-11.656 0-22.727-5.0859-30.32-13.926 1.5469-3.0938 2.3555-6.5078 2.3594-9.9648zm-7.0469 31.074v-0.003906c9.0234 9.7656 21.715 15.316 35.012 15.316 13.293 0 25.984-5.5508 35.008-15.316 2 1.8906 4.3359 3.3906 6.8789 4.4297l64.098 26.078c8.2266 3.3516 14.758 9.8633 18.137 18.078h-248.25c3.3828-8.2188 9.9297-14.734 18.16-18.078l64.082-26.078c2.5469-1.0391 4.8789-2.5391 6.8789-4.4297zm-111.51 54.75h293.05v-0.003906c3.0547 0 5.9727 1.2734 8.043 3.5195 2.0703 2.2422 3.1094 5.25 2.8672 8.293l-11.746 145.81-0.003906 0.003906c-0.39063 4.7969-4.4062 8.4883-9.2188 8.4844h-272.95c-4.8125 0-8.8203-3.6914-9.2148-8.4844l-11.738-145.81v-0.003906c-0.24609-3.043 0.79297-6.0508 2.8633-8.293 2.0742-2.2461 4.9883-3.5195 8.043-3.5195z"/>
  <path d="m276.65 207.07c0.066406-1.7695-0.59375-3.4883-1.8242-4.7656-1.2305-1.2734-2.9258-1.9922-4.6953-1.9922-1.7734 0-3.4688 0.71875-4.6953 1.9922-1.2305 1.2773-1.8906 2.9961-1.8281 4.7656-0.0625 1.7695 0.59766 3.4922 1.8281 4.7656 1.2266 1.2734 2.9219 1.9961 4.6953 1.9961 1.7695 0 3.4648-0.72266 4.6953-1.9961 1.2305-1.2734 1.8906-2.9961 1.8242-4.7656z"/>
  <path d="m335.39 207.07c0.019531-1.7461-0.65625-3.4297-1.8867-4.6719-1.2266-1.2422-2.8984-1.9414-4.6445-1.9414-1.7461 0-3.4219 0.69922-4.6484 1.9414-1.2266 1.2422-1.9062 2.9258-1.8828 4.6719-0.023438 1.7461 0.65625 3.4297 1.8828 4.6719 1.2266 1.2422 2.9023 1.9414 4.6484 1.9414 1.7461 0 3.418-0.69922 4.6445-1.9414 1.2305-1.2422 1.9062-2.9258 1.8867-4.6719z"/>
  <path d="m413.79 23.336c-6.6211-0.003907-12.973 2.625-17.656 7.3047s-7.3164 11.031-7.3164 17.652v72.875c-0.003906 6.625 2.625 12.98 7.3086 17.664 4.6836 4.6836 11.039 7.3125 17.664 7.3086h2.9492v14.688c0.003906 1.8008 1.0312 3.4453 2.6523 4.2383 1.6211 0.78906 3.5547 0.58594 4.9766-0.52344l22.797-17.898c0.42188-0.33203 0.94141-0.50781 1.4766-0.50781h90.559c6.6211 0 12.973-2.6328 17.652-7.3164 4.6836-4.6836 7.3086-11.035 7.3047-17.656v-72.875c0-6.6172-2.6289-12.965-7.3086-17.645-4.6797-4.6836-11.027-7.3125-17.648-7.3125zm0 6.168h125.45c4.9805 0 9.7617 1.9805 13.285 5.5039 3.5234 3.5234 5.5039 8.3008 5.5078 13.285v72.875c0 4.9883-1.9766 9.7695-5.5 13.297-3.5273 3.5273-8.3086 5.5117-13.293 5.5117h-90.574c-1.9141-0.003906-3.7734 0.63672-5.2773 1.8164l-20.461 16.082v-12.641h-0.003907c-0.003906-2.9102-2.3672-5.2617-5.2734-5.2578h-3.8555c-4.9844 0-9.7695-1.9844-13.293-5.5117-3.5234-3.5273-5.5039-8.3086-5.5-13.297v-72.875c0-4.9844 1.9805-9.7617 5.5078-13.285 3.5234-3.5234 8.3008-5.5039 13.285-5.5039z"/>
  <path d="m466.45 129.34 30.363-88.633c0.50781-1.5938-0.35156-3.3047-1.9375-3.8477-1.5859-0.54297-3.3125 0.28125-3.8906 1.8516l-30.367 88.633c-0.55078 1.6094 0.30469 3.3633 1.918 3.9141 1.6094 0.55078 3.3594-0.30859 3.9141-1.918z"/>
  <path d="m509.39 54.527c-1.2031-1.2031-3.1523-1.2031-4.3555 0-1.207 1.2031-1.207 3.1523-0.003906 4.3594l25.598 25.578-25.598 25.578c-0.57812 0.57812-0.90234 1.3633-0.90234 2.1797s0.32422 1.6016 0.90234 2.1797c1.207 1.2031 3.1562 1.2031 4.3594-0.003906l26.125-26.121h0.003906c2.1055-2.1055 2.1055-5.5195 0-7.625z"/>
  <path d="m422.08 84.465 25.574-25.578h0.003906c1.1484-1.2148 1.1211-3.1211-0.058594-4.3008-1.1836-1.1836-3.0898-1.207-4.3008-0.058594l-26.109 26.121v0.003906c-2.1055 2.1055-2.1055 5.5195 0 7.625l26.109 26.121c1.2109 1.1523 3.1211 1.1289 4.3047-0.054688 1.1797-1.1797 1.207-3.0898 0.054687-4.3008z"/>
  <path d="m281.89 252.89c10.895 6.2773 24.305 6.2773 35.199 0 1.7383-1.1055 2.3008-3.3828 1.2734-5.168-1.0234-1.7891-3.2734-2.4492-5.1055-1.5078-8.5156 4.9102-19 4.9102-27.512 0-1.8438-1.0625-4.1992-0.42969-5.2656 1.4102-1.0625 1.8438-0.42969 4.1992 1.4102 5.2656z"/>
 </g>
</svg>
